<mxfile host="app.diagrams.net" agent="Mozilla/5.0 (Windows NT 10.0; Win64; x64; rv:135.0) Gecko/20100101 Firefox/135.0" version="26.1.3">
  <diagram name="Page-1" id="Pth8ftMaZaAQIXo8Q6a8">
    <mxGraphModel dx="1434" dy="1194" grid="1" gridSize="10" guides="1" tooltips="1" connect="1" arrows="1" fold="1" page="0" pageScale="1" pageWidth="850" pageHeight="1100" math="0" shadow="0">
      <root>
        <mxCell id="0" />
        <mxCell id="1" parent="0" />
        <mxCell id="4oSctnd5ofGBbjqpAgh3-17" value="Warehouse Agent" style="swimlane;whiteSpace=wrap;html=1;labelBackgroundColor=none;" vertex="1" parent="1">
          <mxGeometry x="380" y="-280" width="1180" height="560" as="geometry" />
        </mxCell>
        <mxCell id="4oSctnd5ofGBbjqpAgh3-23" style="edgeStyle=orthogonalEdgeStyle;rounded=0;orthogonalLoop=1;jettySize=auto;html=1;exitX=1;exitY=0.5;exitDx=0;exitDy=0;entryX=0;entryY=0.5;entryDx=0;entryDy=0;" edge="1" parent="4oSctnd5ofGBbjqpAgh3-17" source="4oSctnd5ofGBbjqpAgh3-19" target="4oSctnd5ofGBbjqpAgh3-21">
          <mxGeometry relative="1" as="geometry" />
        </mxCell>
        <mxCell id="4oSctnd5ofGBbjqpAgh3-26" value="70% chance" style="edgeLabel;html=1;align=center;verticalAlign=middle;resizable=0;points=[];" vertex="1" connectable="0" parent="4oSctnd5ofGBbjqpAgh3-23">
          <mxGeometry x="0.1703" y="-1" relative="1" as="geometry">
            <mxPoint y="12" as="offset" />
          </mxGeometry>
        </mxCell>
        <mxCell id="4oSctnd5ofGBbjqpAgh3-24" style="edgeStyle=orthogonalEdgeStyle;rounded=0;orthogonalLoop=1;jettySize=auto;html=1;exitX=1;exitY=0.5;exitDx=0;exitDy=0;entryX=0;entryY=0.5;entryDx=0;entryDy=0;" edge="1" parent="4oSctnd5ofGBbjqpAgh3-17" source="4oSctnd5ofGBbjqpAgh3-19" target="4oSctnd5ofGBbjqpAgh3-20">
          <mxGeometry relative="1" as="geometry" />
        </mxCell>
        <mxCell id="4oSctnd5ofGBbjqpAgh3-27" value="30% chance" style="edgeLabel;html=1;align=center;verticalAlign=middle;resizable=0;points=[];" vertex="1" connectable="0" parent="4oSctnd5ofGBbjqpAgh3-24">
          <mxGeometry x="-0.0419" y="-2" relative="1" as="geometry">
            <mxPoint y="5" as="offset" />
          </mxGeometry>
        </mxCell>
        <mxCell id="4oSctnd5ofGBbjqpAgh3-19" value="Spawn" style="rounded=0;whiteSpace=wrap;html=1;" vertex="1" parent="4oSctnd5ofGBbjqpAgh3-17">
          <mxGeometry x="20" y="200" width="120" height="60" as="geometry" />
        </mxCell>
        <mxCell id="4oSctnd5ofGBbjqpAgh3-48" style="edgeStyle=orthogonalEdgeStyle;rounded=0;orthogonalLoop=1;jettySize=auto;html=1;exitX=0.5;exitY=1;exitDx=0;exitDy=0;entryX=0.5;entryY=0;entryDx=0;entryDy=0;" edge="1" parent="4oSctnd5ofGBbjqpAgh3-17" source="4oSctnd5ofGBbjqpAgh3-21" target="4oSctnd5ofGBbjqpAgh3-20">
          <mxGeometry relative="1" as="geometry" />
        </mxCell>
        <mxCell id="4oSctnd5ofGBbjqpAgh3-49" value="&lt;div&gt;Player within 10 studs&lt;/div&gt;&lt;div&gt;OR&lt;/div&gt;&lt;div&gt;Player makes noise&lt;/div&gt;&lt;div&gt;within 20 studs&lt;/div&gt;" style="edgeLabel;html=1;align=center;verticalAlign=middle;resizable=0;points=[];" vertex="1" connectable="0" parent="4oSctnd5ofGBbjqpAgh3-48">
          <mxGeometry x="-0.1455" y="-1" relative="1" as="geometry">
            <mxPoint x="1" y="6" as="offset" />
          </mxGeometry>
        </mxCell>
        <mxCell id="4oSctnd5ofGBbjqpAgh3-50" style="rounded=0;orthogonalLoop=1;jettySize=auto;html=1;exitX=1;exitY=0.5;exitDx=0;exitDy=0;entryX=0;entryY=0.5;entryDx=0;entryDy=0;labelBackgroundColor=default;" edge="1" parent="4oSctnd5ofGBbjqpAgh3-17" source="4oSctnd5ofGBbjqpAgh3-21" target="4oSctnd5ofGBbjqpAgh3-43">
          <mxGeometry relative="1" as="geometry" />
        </mxCell>
        <mxCell id="4oSctnd5ofGBbjqpAgh3-51" value="&lt;div&gt;Player hurts agent&lt;/div&gt;&lt;div&gt;OR&lt;/div&gt;&lt;div&gt;Player fires gun within 10 studs&lt;/div&gt;&lt;div&gt;OR&lt;/div&gt;&lt;div&gt;Scream from nearby enemy&lt;/div&gt;" style="edgeLabel;html=1;align=center;verticalAlign=middle;resizable=0;points=[];" vertex="1" connectable="0" parent="4oSctnd5ofGBbjqpAgh3-50">
          <mxGeometry x="-0.4295" y="3" relative="1" as="geometry">
            <mxPoint x="94" y="29" as="offset" />
          </mxGeometry>
        </mxCell>
        <mxCell id="4oSctnd5ofGBbjqpAgh3-21" value="Passive" style="rounded=0;whiteSpace=wrap;html=1;" vertex="1" parent="4oSctnd5ofGBbjqpAgh3-17">
          <mxGeometry x="220" y="70" width="120" height="60" as="geometry" />
        </mxCell>
        <mxCell id="4oSctnd5ofGBbjqpAgh3-31" style="edgeStyle=orthogonalEdgeStyle;rounded=0;orthogonalLoop=1;jettySize=auto;html=1;exitX=0.5;exitY=1;exitDx=0;exitDy=0;entryX=0;entryY=0.5;entryDx=0;entryDy=0;" edge="1" parent="4oSctnd5ofGBbjqpAgh3-17" source="4oSctnd5ofGBbjqpAgh3-20" target="4oSctnd5ofGBbjqpAgh3-30">
          <mxGeometry relative="1" as="geometry" />
        </mxCell>
        <mxCell id="4oSctnd5ofGBbjqpAgh3-33" value="Sees Player" style="edgeLabel;html=1;align=center;verticalAlign=middle;resizable=0;points=[];" vertex="1" connectable="0" parent="4oSctnd5ofGBbjqpAgh3-31">
          <mxGeometry x="0.1667" relative="1" as="geometry">
            <mxPoint as="offset" />
          </mxGeometry>
        </mxCell>
        <mxCell id="4oSctnd5ofGBbjqpAgh3-57" style="rounded=0;orthogonalLoop=1;jettySize=auto;html=1;exitX=1;exitY=0;exitDx=0;exitDy=0;entryX=0;entryY=0.5;entryDx=0;entryDy=0;" edge="1" parent="4oSctnd5ofGBbjqpAgh3-17" source="4oSctnd5ofGBbjqpAgh3-20" target="4oSctnd5ofGBbjqpAgh3-43">
          <mxGeometry relative="1" as="geometry" />
        </mxCell>
        <mxCell id="4oSctnd5ofGBbjqpAgh3-58" value="Scream from nearby enemy" style="edgeLabel;html=1;align=center;verticalAlign=middle;resizable=0;points=[];" vertex="1" connectable="0" parent="4oSctnd5ofGBbjqpAgh3-57">
          <mxGeometry x="0.0797" y="2" relative="1" as="geometry">
            <mxPoint as="offset" />
          </mxGeometry>
        </mxCell>
        <mxCell id="4oSctnd5ofGBbjqpAgh3-20" value="Active (Passively looking around)" style="rounded=0;whiteSpace=wrap;html=1;" vertex="1" parent="4oSctnd5ofGBbjqpAgh3-17">
          <mxGeometry x="220" y="350" width="120" height="60" as="geometry" />
        </mxCell>
        <mxCell id="4oSctnd5ofGBbjqpAgh3-36" style="edgeStyle=orthogonalEdgeStyle;rounded=0;orthogonalLoop=1;jettySize=auto;html=1;exitX=0.5;exitY=0;exitDx=0;exitDy=0;entryX=0;entryY=0.5;entryDx=0;entryDy=0;" edge="1" parent="4oSctnd5ofGBbjqpAgh3-17" source="4oSctnd5ofGBbjqpAgh3-30" target="4oSctnd5ofGBbjqpAgh3-35">
          <mxGeometry relative="1" as="geometry" />
        </mxCell>
        <mxCell id="4oSctnd5ofGBbjqpAgh3-37" value="&lt;div&gt;Player Looking&lt;/div&gt;" style="edgeLabel;html=1;align=center;verticalAlign=middle;resizable=0;points=[];" vertex="1" connectable="0" parent="4oSctnd5ofGBbjqpAgh3-36">
          <mxGeometry x="-0.0463" y="1" relative="1" as="geometry">
            <mxPoint x="9" y="1" as="offset" />
          </mxGeometry>
        </mxCell>
        <mxCell id="4oSctnd5ofGBbjqpAgh3-38" style="edgeStyle=orthogonalEdgeStyle;rounded=0;orthogonalLoop=1;jettySize=auto;html=1;exitX=0.5;exitY=1;exitDx=0;exitDy=0;entryX=0;entryY=0.5;entryDx=0;entryDy=0;" edge="1" parent="4oSctnd5ofGBbjqpAgh3-17" source="4oSctnd5ofGBbjqpAgh3-30" target="4oSctnd5ofGBbjqpAgh3-34">
          <mxGeometry relative="1" as="geometry" />
        </mxCell>
        <mxCell id="4oSctnd5ofGBbjqpAgh3-39" value="Player Not Looking" style="edgeLabel;html=1;align=center;verticalAlign=middle;resizable=0;points=[];" vertex="1" connectable="0" parent="4oSctnd5ofGBbjqpAgh3-38">
          <mxGeometry x="-0.1471" y="2" relative="1" as="geometry">
            <mxPoint x="28" y="2" as="offset" />
          </mxGeometry>
        </mxCell>
        <mxCell id="4oSctnd5ofGBbjqpAgh3-30" value="Alerted" style="rounded=0;whiteSpace=wrap;html=1;" vertex="1" parent="4oSctnd5ofGBbjqpAgh3-17">
          <mxGeometry x="470" y="420" width="120" height="60" as="geometry" />
        </mxCell>
        <mxCell id="4oSctnd5ofGBbjqpAgh3-44" style="edgeStyle=orthogonalEdgeStyle;rounded=0;orthogonalLoop=1;jettySize=auto;html=1;exitX=1;exitY=0.5;exitDx=0;exitDy=0;entryX=0.5;entryY=1;entryDx=0;entryDy=0;" edge="1" parent="4oSctnd5ofGBbjqpAgh3-17" source="4oSctnd5ofGBbjqpAgh3-34" target="4oSctnd5ofGBbjqpAgh3-43">
          <mxGeometry relative="1" as="geometry" />
        </mxCell>
        <mxCell id="4oSctnd5ofGBbjqpAgh3-47" value="Close to player" style="edgeLabel;html=1;align=center;verticalAlign=middle;resizable=0;points=[];" vertex="1" connectable="0" parent="4oSctnd5ofGBbjqpAgh3-44">
          <mxGeometry x="0.2543" relative="1" as="geometry">
            <mxPoint as="offset" />
          </mxGeometry>
        </mxCell>
        <mxCell id="4oSctnd5ofGBbjqpAgh3-45" style="edgeStyle=orthogonalEdgeStyle;rounded=0;orthogonalLoop=1;jettySize=auto;html=1;exitX=0.5;exitY=0;exitDx=0;exitDy=0;entryX=0;entryY=0.5;entryDx=0;entryDy=0;" edge="1" parent="4oSctnd5ofGBbjqpAgh3-17" source="4oSctnd5ofGBbjqpAgh3-34" target="4oSctnd5ofGBbjqpAgh3-35">
          <mxGeometry relative="1" as="geometry">
            <Array as="points">
              <mxPoint x="730" y="450" />
              <mxPoint x="640" y="450" />
              <mxPoint x="640" y="390" />
            </Array>
          </mxGeometry>
        </mxCell>
        <mxCell id="4oSctnd5ofGBbjqpAgh3-46" value="&lt;div&gt;Player Looking&lt;/div&gt;" style="edgeLabel;html=1;align=center;verticalAlign=middle;resizable=0;points=[];" vertex="1" connectable="0" parent="4oSctnd5ofGBbjqpAgh3-45">
          <mxGeometry x="-0.2632" y="-2" relative="1" as="geometry">
            <mxPoint as="offset" />
          </mxGeometry>
        </mxCell>
        <mxCell id="4oSctnd5ofGBbjqpAgh3-34" value="Approaching" style="rounded=0;whiteSpace=wrap;html=1;" vertex="1" parent="4oSctnd5ofGBbjqpAgh3-17">
          <mxGeometry x="670" y="480" width="120" height="60" as="geometry" />
        </mxCell>
        <mxCell id="4oSctnd5ofGBbjqpAgh3-41" style="edgeStyle=orthogonalEdgeStyle;rounded=0;orthogonalLoop=1;jettySize=auto;html=1;exitX=0.5;exitY=0;exitDx=0;exitDy=0;entryX=1;entryY=0.5;entryDx=0;entryDy=0;" edge="1" parent="4oSctnd5ofGBbjqpAgh3-17" source="4oSctnd5ofGBbjqpAgh3-35" target="4oSctnd5ofGBbjqpAgh3-20">
          <mxGeometry relative="1" as="geometry">
            <Array as="points">
              <mxPoint x="730" y="330" />
              <mxPoint x="450" y="330" />
              <mxPoint x="450" y="380" />
            </Array>
          </mxGeometry>
        </mxCell>
        <mxCell id="4oSctnd5ofGBbjqpAgh3-42" value="&lt;div&gt;Player looking at agent for 10s&lt;/div&gt;" style="edgeLabel;html=1;align=center;verticalAlign=middle;resizable=0;points=[];" vertex="1" connectable="0" parent="4oSctnd5ofGBbjqpAgh3-41">
          <mxGeometry x="0.1688" y="3" relative="1" as="geometry">
            <mxPoint x="95" y="-3" as="offset" />
          </mxGeometry>
        </mxCell>
        <mxCell id="4oSctnd5ofGBbjqpAgh3-35" value="Stopped" style="rounded=0;whiteSpace=wrap;html=1;" vertex="1" parent="4oSctnd5ofGBbjqpAgh3-17">
          <mxGeometry x="670" y="360" width="120" height="60" as="geometry" />
        </mxCell>
        <mxCell id="4oSctnd5ofGBbjqpAgh3-59" style="edgeStyle=orthogonalEdgeStyle;rounded=0;orthogonalLoop=1;jettySize=auto;html=1;exitX=1;exitY=0.5;exitDx=0;exitDy=0;entryX=0;entryY=0.5;entryDx=0;entryDy=0;" edge="1" parent="4oSctnd5ofGBbjqpAgh3-17" source="4oSctnd5ofGBbjqpAgh3-43" target="4oSctnd5ofGBbjqpAgh3-52">
          <mxGeometry relative="1" as="geometry" />
        </mxCell>
        <mxCell id="4oSctnd5ofGBbjqpAgh3-60" style="edgeStyle=orthogonalEdgeStyle;rounded=0;orthogonalLoop=1;jettySize=auto;html=1;exitX=1;exitY=0.5;exitDx=0;exitDy=0;entryX=0;entryY=0.5;entryDx=0;entryDy=0;" edge="1" parent="4oSctnd5ofGBbjqpAgh3-17" source="4oSctnd5ofGBbjqpAgh3-43" target="4oSctnd5ofGBbjqpAgh3-53">
          <mxGeometry relative="1" as="geometry" />
        </mxCell>
        <mxCell id="4oSctnd5ofGBbjqpAgh3-61" style="edgeStyle=orthogonalEdgeStyle;rounded=0;orthogonalLoop=1;jettySize=auto;html=1;exitX=1;exitY=0.5;exitDx=0;exitDy=0;entryX=0;entryY=0.5;entryDx=0;entryDy=0;" edge="1" parent="4oSctnd5ofGBbjqpAgh3-17" source="4oSctnd5ofGBbjqpAgh3-43" target="4oSctnd5ofGBbjqpAgh3-54">
          <mxGeometry relative="1" as="geometry" />
        </mxCell>
        <mxCell id="4oSctnd5ofGBbjqpAgh3-62" style="edgeStyle=orthogonalEdgeStyle;rounded=0;orthogonalLoop=1;jettySize=auto;html=1;exitX=1;exitY=0.5;exitDx=0;exitDy=0;entryX=0;entryY=0.5;entryDx=0;entryDy=0;" edge="1" parent="4oSctnd5ofGBbjqpAgh3-17" source="4oSctnd5ofGBbjqpAgh3-43" target="4oSctnd5ofGBbjqpAgh3-55">
          <mxGeometry relative="1" as="geometry" />
        </mxCell>
        <mxCell id="4oSctnd5ofGBbjqpAgh3-63" style="edgeStyle=orthogonalEdgeStyle;rounded=0;orthogonalLoop=1;jettySize=auto;html=1;exitX=1;exitY=0.5;exitDx=0;exitDy=0;entryX=0;entryY=0.5;entryDx=0;entryDy=0;" edge="1" parent="4oSctnd5ofGBbjqpAgh3-17" source="4oSctnd5ofGBbjqpAgh3-43" target="4oSctnd5ofGBbjqpAgh3-56">
          <mxGeometry relative="1" as="geometry" />
        </mxCell>
        <mxCell id="4oSctnd5ofGBbjqpAgh3-43" value="Aggroed" style="rounded=0;whiteSpace=wrap;html=1;" vertex="1" parent="4oSctnd5ofGBbjqpAgh3-17">
          <mxGeometry x="750" y="90" width="120" height="60" as="geometry" />
        </mxCell>
        <mxCell id="4oSctnd5ofGBbjqpAgh3-52" value="Approach player" style="rounded=0;whiteSpace=wrap;html=1;" vertex="1" parent="4oSctnd5ofGBbjqpAgh3-17">
          <mxGeometry x="1040" y="40" width="120" height="60" as="geometry" />
        </mxCell>
        <mxCell id="4oSctnd5ofGBbjqpAgh3-53" value="Attack (if close enough)" style="rounded=0;whiteSpace=wrap;html=1;" vertex="1" parent="4oSctnd5ofGBbjqpAgh3-17">
          <mxGeometry x="1040" y="140" width="120" height="60" as="geometry" />
        </mxCell>
        <mxCell id="4oSctnd5ofGBbjqpAgh3-54" value="&lt;div&gt;Jump (has high&lt;/div&gt;&lt;div&gt;aircontrol)&lt;/div&gt;" style="rounded=0;whiteSpace=wrap;html=1;" vertex="1" parent="4oSctnd5ofGBbjqpAgh3-17">
          <mxGeometry x="1040" y="240" width="120" height="60" as="geometry" />
        </mxCell>
        <mxCell id="4oSctnd5ofGBbjqpAgh3-55" value="Strafe and retreat?" style="rounded=0;whiteSpace=wrap;html=1;" vertex="1" parent="4oSctnd5ofGBbjqpAgh3-17">
          <mxGeometry x="1040" y="340" width="120" height="60" as="geometry" />
        </mxCell>
        <mxCell id="4oSctnd5ofGBbjqpAgh3-56" value="&lt;div&gt;Scream (Aggro&lt;/div&gt;&lt;div&gt;nearby enemies)&lt;/div&gt;" style="rounded=0;whiteSpace=wrap;html=1;" vertex="1" parent="4oSctnd5ofGBbjqpAgh3-17">
          <mxGeometry x="1040" y="430" width="120" height="60" as="geometry" />
        </mxCell>
      </root>
    </mxGraphModel>
  </diagram>
</mxfile>
